<?xml version="1.0" encoding="utf-8"?>
<!-- Generator: Adobe Illustrator 25.3.1, SVG Export Plug-In . SVG Version: 6.00 Build 0)  -->
<svg version="1.1" id="Layer_1" xmlns="http://www.w3.org/2000/svg" xmlns:xlink="http://www.w3.org/1999/xlink" x="0px" y="0px"
	 viewBox="0 0 693 696.13" style="enable-background:new 0 0 693 696.13;" xml:space="preserve">
<style type="text/css">
	.st0{fill:#00D800;}
	.st1{fill:#7100DD;}
</style>
<g>
	<path class="st0" d="M545.55,235.95c0.11,0,0.21-0.11,0.17-0.21c-3.6-9.03-22.02-65.51-62.22-98.16c-3.26-2.65-6.99-5.28-10.6-7.76
		c-1.8-1.24-5.74-3.67-8.9-5.49c-1.71-0.99-7.11-3.55-8.84-4.29c-5.52-2.34-11.82-4.78-15.05-5.69c-13.87-3.9-28.68-5.85-44.44-5.85
		c-36.52,0-70.23,11.23-101.12,33.71c-30.84,22.43-50.14,53.61-57.89,93.54c-0.02,0.11,0.06,0.21,0.17,0.21L545.55,235.95z"/>
	<path class="st1" d="M582.63,563.58c-37.93-0.03-179.04-0.05-179.04-0.05v-0.01c-72.58-0.25-134.91-25.86-186.97-76.88
		c-52.32-51.26-78.47-117.27-78.47-198.03c0-81.44,26.14-147.95,78.43-199.56c0.03-0.03,0.05-0.07,0.05-0.11
		c1.65-14.78-4.31-25.42-11.83-32.8c-9.67-9.5-23.03-14.3-36.58-14.3H47.76c-0.1,0-0.18,0.08-0.18,0.17v276.82
		c0,185.27,150.19,335.46,335.46,335.46h238.47L582.63,563.58z"/>
	<path class="st0" d="M579.08,313.9H233.66c-0.1,0-0.19,0.09-0.18,0.2c4.94,46.96,22.49,84.46,52.65,112.51
		c30.03,27.94,64.93,41.95,104.68,42.11h220.42c13.49,0,24.8-0.01,34.18-0.01L579.08,313.9z"/>
</g>
</svg>
